<svg width="176" height="68" viewBox="0 0 176 68" fill="none" xmlns="http://www.w3.org/2000/svg">
<rect x="0.466797" width="175.402" height="68" rx="34" fill="white"/>
<path d="M73.0333 24.3682C73.0333 25.189 72.7255 25.9073 72.3151 26.4203C71.6994 27.0359 70.9812 27.3438 70.0577 27.3438C69.1343 27.3438 68.416 27.0359 67.8004 26.4203C67.1848 25.8047 66.877 25.0864 66.877 24.163C66.877 23.2395 67.1848 22.5213 67.8004 21.9056C68.416 21.29 69.1343 20.9822 70.0577 20.9822C70.4682 20.9822 70.8786 21.0848 71.289 21.29C71.6994 21.4952 72.0073 21.7004 72.2125 22.0082L71.6994 22.5213C71.289 22.0082 70.776 21.803 69.9551 21.803C69.3395 21.803 68.7239 22.0082 68.3134 22.5213C67.8004 22.9317 67.5952 23.5473 67.5952 24.2656C67.5952 24.9838 67.8004 25.5994 68.3134 26.0099C68.8265 26.4203 69.3395 26.7281 69.9551 26.7281C70.6734 26.7281 71.1864 26.5229 71.6994 26.0099C72.0073 25.7021 72.2125 25.2916 72.2125 24.7786H69.9551V24.0604H72.9307C73.0333 24.0604 73.0333 24.2656 73.0333 24.3682Z" fill="#575A65"/>
<path d="M77.8549 21.8032H75.0845V23.7527H77.6497V24.4709H75.0845V26.4204H77.8549V27.1387H74.2637V21.0849H77.8549V21.8032Z" fill="#575A65"/>
<path d="M81.1383 27.1387H80.3175V21.8032H78.6758V21.0849H82.8826V21.8032H81.1383V27.1387Z" fill="#575A65"/>
<path d="M85.9668 27.1387V21.0849H86.7876V27.1387H85.9668Z" fill="#575A65"/>
<path d="M90.2741 27.1387H89.4533V21.8032H87.709V21.0849H92.0184V21.8032H90.2741V27.1387Z" fill="#575A65"/>
<path d="M100.022 26.4203C99.4065 27.0359 98.6882 27.3438 97.7648 27.3438C96.8413 27.3438 96.1231 27.0359 95.5074 26.4203C94.8918 25.8047 94.584 25.0864 94.584 24.163C94.584 23.2395 94.8918 22.5213 95.5074 21.9056C96.1231 21.29 96.8413 20.9822 97.7648 20.9822C98.6882 20.9822 99.4065 21.29 100.022 21.9056C100.638 22.5213 100.946 23.2395 100.946 24.163C100.946 24.9838 100.638 25.8047 100.022 26.4203ZM96.0205 25.9073C96.4309 26.3177 97.0465 26.6255 97.6622 26.6255C98.2778 26.6255 98.8934 26.4203 99.3039 25.9073C99.7143 25.4968 100.022 24.8812 100.022 24.163C100.022 23.4447 99.8169 22.8291 99.3039 22.4187C98.8934 22.0082 98.2778 21.7004 97.6622 21.7004C97.0465 21.7004 96.4309 21.9056 96.0205 22.4187C95.61 22.8291 95.3022 23.4447 95.3022 24.163C95.4048 24.8812 95.61 25.3942 96.0205 25.9073Z" fill="#575A65"/>
<path d="M102.072 27.1387V21.0849H102.996L105.971 25.8048V24.6761V21.0849H106.792V27.1387H105.971L102.791 22.2136V23.3422V27.1387H102.072Z" fill="#575A65"/>
<path d="M94.5825 36.0657C92.12 36.0657 90.1705 37.9126 90.1705 40.3752C90.1705 42.8377 92.12 44.6846 94.5825 44.6846C97.0451 44.6846 98.9946 42.8377 98.9946 40.3752C98.9946 37.9126 97.0451 36.0657 94.5825 36.0657ZM94.5825 43.0429C93.2487 43.0429 92.12 41.9143 92.12 40.3752C92.12 38.8361 93.2487 37.7074 94.5825 37.7074C95.9164 37.7074 97.0451 38.7335 97.0451 40.3752C97.0451 41.9143 95.9164 43.0429 94.5825 43.0429ZM85.0402 36.0657C82.5776 36.0657 80.6281 37.9126 80.6281 40.3752C80.6281 42.8377 82.5776 44.6846 85.0402 44.6846C87.5027 44.6846 89.4522 42.8377 89.4522 40.3752C89.3496 37.9126 87.4001 36.0657 85.0402 36.0657ZM85.0402 43.0429C83.7063 43.0429 82.5776 41.9143 82.5776 40.3752C82.5776 38.8361 83.7063 37.7074 85.0402 37.7074C86.3741 37.7074 87.5027 38.7335 87.5027 40.3752C87.5027 41.9143 86.3741 43.0429 85.0402 43.0429ZM73.6509 37.3996V39.2465H78.063C77.9604 40.2726 77.5499 40.9908 77.0369 41.5038C76.4213 42.1195 75.3952 42.8377 73.6509 42.8377C70.8805 42.8377 68.8284 40.683 68.8284 37.9126C68.8284 35.1423 70.9832 32.9875 73.6509 32.9875C75.0874 32.9875 76.2161 33.6032 77.0369 34.3214L78.3708 32.9875C77.2421 31.9615 75.8056 31.1406 73.7535 31.1406C69.9571 31.1406 66.8789 34.1162 66.8789 37.81C66.8789 41.5038 70.0597 44.4794 73.7535 44.4794C75.8056 44.4794 77.3447 43.8638 78.4734 42.6325C79.7047 41.4012 80.1151 39.7595 80.1151 38.3231C80.1151 37.9126 80.1151 37.5022 80.0125 37.1944C79.8073 37.3996 73.6509 37.3996 73.6509 37.3996ZM120.234 38.8361C119.824 37.9126 118.798 36.0657 116.438 36.0657C114.18 36.0657 112.333 37.81 112.333 40.3752C112.333 42.8377 114.18 44.6846 116.643 44.6846C118.695 44.6846 119.824 43.4534 120.337 42.7351L118.798 41.7091C118.285 42.4273 117.669 42.9403 116.643 42.9403C115.719 42.9403 115.001 42.5299 114.488 41.6064L120.337 39.2465C120.439 39.3491 120.234 38.8361 120.234 38.8361ZM114.283 40.2726C114.283 38.6309 115.617 37.7074 116.54 37.7074C117.258 37.7074 117.977 38.1178 118.182 38.6309L114.283 40.2726ZM109.46 44.4794H111.41V31.7563H109.46V44.4794ZM106.382 36.9892C105.869 36.4761 105.048 36.0657 104.022 36.0657C101.868 36.0657 99.8155 38.0152 99.8155 40.3752C99.8155 42.8377 101.868 44.6846 104.022 44.6846C105.048 44.6846 105.869 44.2742 106.28 43.6586H106.382V44.2742C106.382 45.9159 105.459 46.8394 104.022 46.8394C102.894 46.8394 102.073 46.0185 101.868 45.3003L100.226 46.0185C100.739 47.1472 101.97 48.5837 104.125 48.5837C106.382 48.5837 108.332 47.2498 108.332 44.069V36.2709H106.485L106.382 36.9892ZM104.125 43.0429C102.791 43.0429 101.662 41.9143 101.662 40.4778C101.662 38.9387 102.791 37.81 104.125 37.81C105.459 37.81 106.485 38.9387 106.485 40.4778C106.485 41.9143 105.459 43.0429 104.125 43.0429ZM129.161 31.7563H124.544V44.4794H126.493V39.6569H129.161C131.316 39.6569 133.368 38.1178 133.368 35.7579C133.47 33.2954 131.316 31.7563 129.161 31.7563ZM129.263 37.9126H126.493V33.5006H129.263C130.7 33.5006 131.521 34.6292 131.521 35.6553C131.521 36.6814 130.7 37.9126 129.263 37.9126ZM141.166 36.0657C139.729 36.0657 138.293 36.6814 137.78 38.0152L139.524 38.7335C139.934 38.0152 140.55 37.81 141.268 37.81C142.294 37.81 143.32 38.4257 143.32 39.4517V39.5543C143.013 39.3491 142.192 39.0413 141.268 39.0413C139.421 39.0413 137.574 40.0674 137.574 41.9143C137.574 43.6586 139.114 44.6846 140.755 44.6846C142.089 44.6846 142.807 44.069 143.218 43.4534H143.32V44.4794H145.167V39.5543C145.065 37.297 143.32 36.0657 141.166 36.0657ZM140.858 43.0429C140.242 43.0429 139.319 42.7351 139.319 42.0169C139.319 40.9908 140.447 40.683 141.371 40.683C142.192 40.683 142.602 40.8882 143.115 41.0934C143.013 42.2221 141.987 43.0429 140.858 43.0429ZM151.734 36.3735L149.579 41.9143H149.477L147.219 36.3735H145.167L148.553 44.069L146.604 48.3784H148.656L153.889 36.3735H151.734ZM134.496 44.4794H136.446V31.7563H134.496V44.4794Z" fill="#575A65"/>
<path d="M35.2127 21.856C34.907 22.1617 34.7031 22.6713 34.7031 23.2828V45.602C34.7031 46.2135 34.907 46.723 35.2127 47.0288L35.3146 47.1307L47.952 34.5952V34.2895L35.2127 21.856Z" fill="url(#paint0_linear)"/>
<path d="M52.1297 38.7736L47.9512 34.5951V34.2893L52.1297 30.1108L52.2316 30.2128L57.2254 33.0664C58.6522 33.8817 58.6522 35.2066 57.2254 36.0219L52.1297 38.7736C52.2316 38.7736 52.1297 38.7736 52.1297 38.7736Z" fill="url(#paint1_linear)"/>
<path d="M52.2326 38.7736L47.9522 34.4932L35.2129 47.0286C35.7225 47.5382 36.4359 47.5382 37.3531 47.1305L52.2326 38.7736Z" fill="url(#paint2_linear)"/>
<path d="M52.2326 30.213L37.3531 21.856C36.4359 21.3464 35.7225 21.4484 35.2129 21.9579L47.9522 34.4934L52.2326 30.213Z" fill="url(#paint3_linear)"/>
<defs>
<linearGradient id="paint0_linear" x1="46.8109" y1="45.8272" x2="29.8674" y2="28.6836" gradientUnits="userSpaceOnUse">
<stop stop-color="#00A0FF"/>
<stop offset="0.0066" stop-color="#00A1FF"/>
<stop offset="0.2601" stop-color="#00BEFF"/>
<stop offset="0.5122" stop-color="#00D2FF"/>
<stop offset="0.7604" stop-color="#00DFFF"/>
<stop offset="1" stop-color="#00E3FF"/>
</linearGradient>
<linearGradient id="paint1_linear" x1="59.0758" y1="34.4421" x2="34.3565" y2="34.4421" gradientUnits="userSpaceOnUse">
<stop stop-color="#FFE000"/>
<stop offset="0.4087" stop-color="#FFBD00"/>
<stop offset="0.7754" stop-color="#FFA500"/>
<stop offset="1" stop-color="#FF9C00"/>
</linearGradient>
<linearGradient id="paint2_linear" x1="41.3662" y1="40.5471" x2="18.3895" y2="17.2991" gradientUnits="userSpaceOnUse">
<stop stop-color="#FF3A44"/>
<stop offset="1" stop-color="#C31162"/>
</linearGradient>
<linearGradient id="paint3_linear" x1="23.4966" y1="46.1003" x2="33.7567" y2="35.719" gradientUnits="userSpaceOnUse">
<stop stop-color="#32A071"/>
<stop offset="0.0685" stop-color="#2DA771"/>
<stop offset="0.4762" stop-color="#15CF74"/>
<stop offset="0.8009" stop-color="#06E775"/>
<stop offset="1" stop-color="#00F076"/>
</linearGradient>
</defs>
</svg>
