<svg width="176" height="68" viewBox="0 0 176 68" fill="none" xmlns="http://www.w3.org/2000/svg">
<rect width="175.402" height="68" rx="34" fill="white"/>
<path d="M47.2868 33.3088C47.2868 29.9689 50.0004 28.299 50.2091 28.1946C48.6436 25.8985 46.1387 25.5854 45.3037 25.5854C43.2163 25.3766 41.2333 26.8378 40.1896 26.8378C39.1458 26.8378 37.4759 25.5854 35.806 25.6897C33.6142 25.6897 31.5268 27.0465 30.3787 29.0296C27.9782 33.1 29.7525 39.1535 32.0487 42.4934C33.1967 44.1633 34.5535 45.9376 36.2235 45.8332C37.8934 45.7289 38.5196 44.7895 40.607 44.7895C42.5901 44.7895 43.2163 45.8332 44.9906 45.8332C46.7649 45.8332 47.913 44.1633 49.0611 42.5978C50.4179 40.7191 50.9397 38.9448 50.9397 38.8404C50.8353 38.6317 47.3911 37.2749 47.2868 33.3088Z" fill="#0267FF"/>
<path d="M43.9455 23.3935C44.8848 22.2454 45.511 20.6798 45.3023 19.1143C43.9455 19.2186 42.3799 20.0536 41.3362 21.0973C40.5012 22.0366 39.7706 23.7066 39.9794 25.1677C41.5449 25.3765 43.0061 24.5415 43.9455 23.3935Z" fill="#0267FF"/>
<path d="M75.5778 45.2994H73.2179L71.9866 41.2978H67.5745L66.3433 45.2994H64.0859L68.498 31.6528H71.1658L75.5778 45.2994ZM71.6788 39.6561L70.5501 36.0649C70.4475 35.6545 70.2423 34.8336 69.8319 33.4997C69.7293 34.1154 69.5241 34.9362 69.2162 36.0649L67.985 39.6561H71.6788Z" fill="#575A65"/>
<path d="M86.9661 40.2718C86.9661 41.9135 86.5556 43.2474 85.6322 44.2735C84.8113 45.0943 83.7853 45.6074 82.6566 45.6074C81.3227 45.6074 80.3993 45.0943 79.8862 44.1709V49.4038H77.7315V38.7327C77.7315 37.7067 77.7315 36.578 77.6289 35.4494H79.5784L79.681 36.9884C80.3993 35.8598 81.5279 35.2441 82.9644 35.2441C84.0931 35.2441 85.1191 35.6546 85.8374 36.578C86.5556 37.5015 86.9661 38.7327 86.9661 40.2718ZM84.7087 40.3744C84.7087 39.451 84.5035 38.6301 84.0931 38.0145C83.5801 37.3989 82.9644 37.091 82.1436 37.091C81.6305 37.091 81.1175 37.2963 80.7071 37.6041C80.2967 38.0145 79.9888 38.4249 79.8862 39.0406C79.7836 39.3484 79.7836 39.5536 79.7836 39.6562V41.2979C79.7836 42.0161 79.9888 42.6318 80.3993 43.1448C80.8097 43.6578 81.4253 43.863 82.1436 43.863C82.9644 43.863 83.5801 43.5552 84.0931 42.9396C84.5035 42.2214 84.7087 41.4005 84.7087 40.3744Z" fill="#575A65"/>
<path d="M98.2532 40.2718C98.2532 41.9135 97.8427 43.2474 96.9193 44.2735C96.0984 45.0943 95.0724 45.6074 93.9437 45.6074C92.6098 45.6074 91.6864 45.0943 91.1734 44.1709V49.4038H89.0186V38.7327C89.0186 37.7067 89.0186 36.578 88.916 35.4494H90.8655L90.9681 36.9884C91.6864 35.8598 92.8151 35.2441 94.2515 35.2441C95.3802 35.2441 96.4063 35.6546 97.1245 36.578C97.8427 37.5015 98.2532 38.7327 98.2532 40.2718ZM95.9958 40.3744C95.9958 39.451 95.7906 38.6301 95.3802 38.0145C94.8672 37.3989 94.2515 37.091 93.4307 37.091C92.9177 37.091 92.4046 37.2963 91.9942 37.6041C91.5838 38.0145 91.276 38.4249 91.1734 39.0406C91.0707 39.3484 91.0707 39.5536 91.0707 39.6562V41.2979C91.0707 42.0161 91.276 42.6318 91.6864 43.1448C92.0968 43.6578 92.7124 43.863 93.4307 43.863C94.2515 43.863 94.8672 43.5552 95.3802 42.9396C95.7906 42.2214 95.9958 41.4005 95.9958 40.3744Z" fill="#575A65"/>
<path d="M110.871 41.503C110.871 42.6317 110.46 43.6577 109.639 44.376C108.716 45.1968 107.485 45.6073 105.946 45.6073C104.509 45.6073 103.278 45.2994 102.457 44.7864L102.97 42.9395C103.894 43.5551 105.022 43.863 106.151 43.863C106.972 43.863 107.587 43.6577 108.1 43.3499C108.511 42.9395 108.819 42.5291 108.819 41.8108C108.819 41.2978 108.613 40.7848 108.203 40.3743C107.793 39.9639 107.177 39.6561 106.356 39.3483C103.996 38.4248 102.765 37.1936 102.765 35.4493C102.765 34.3206 103.175 33.3971 103.996 32.6789C104.817 31.9607 105.946 31.6528 107.382 31.6528C108.613 31.6528 109.639 31.858 110.46 32.2685L109.845 33.9102C109.024 33.4997 108.203 33.2945 107.28 33.2945C106.459 33.2945 105.946 33.4997 105.433 33.9102C105.022 34.218 104.92 34.6284 104.92 35.1414C104.92 35.6545 105.125 36.1675 105.535 36.4753C105.946 36.7831 106.561 37.1936 107.485 37.5014C108.613 38.0144 109.537 38.5274 110.05 39.1431C110.666 39.7587 110.871 40.5796 110.871 41.503Z" fill="#575A65"/>
<path d="M118.159 37.0911H115.799V41.9135C115.799 43.1448 116.21 43.7605 117.031 43.7605C117.441 43.7605 117.749 43.7605 117.954 43.6578L118.057 45.2995C117.646 45.5048 117.031 45.5048 116.312 45.5048C115.491 45.5048 114.773 45.1969 114.26 44.6839C113.747 44.1709 113.542 43.2474 113.542 42.0161V37.0911H112.105V35.4494H113.542V33.6025L115.697 32.9868V35.4494H118.057C118.159 35.4494 118.159 37.0911 118.159 37.0911Z" fill="#575A65"/>
<path d="M129.035 40.2718C129.035 41.8109 128.624 43.0422 127.701 43.9657C126.777 44.9917 125.546 45.5047 124.11 45.5047C122.673 45.5047 121.544 44.9917 120.621 44.0683C119.698 43.1448 119.287 41.9135 119.287 40.477C119.287 38.938 119.698 37.7067 120.621 36.6806C121.544 35.7572 122.673 35.2441 124.212 35.2441C125.649 35.2441 126.777 35.7572 127.701 36.6806C128.624 37.6041 129.035 38.8354 129.035 40.2718ZM126.777 40.3744C126.777 39.451 126.572 38.7327 126.162 38.0145C125.751 37.1937 125.033 36.8858 124.212 36.8858C123.289 36.8858 122.673 37.2963 122.16 38.0145C121.75 38.6301 121.544 39.451 121.544 40.3744C121.544 41.2979 121.75 42.0161 122.16 42.7344C122.673 43.5552 123.289 43.863 124.11 43.863C124.93 43.863 125.649 43.4526 126.059 42.6318C126.572 42.0161 126.777 41.2979 126.777 40.3744Z" fill="#575A65"/>
<path d="M136.118 37.3989C135.912 37.3989 135.707 37.2963 135.399 37.2963C134.579 37.2963 134.066 37.6041 133.655 38.2197C133.245 38.7327 133.142 39.3484 133.142 40.1692V45.2995H130.987V38.5275C130.987 37.3989 130.987 36.3728 130.885 35.4494H132.834L132.937 37.2963H133.039C133.245 36.6806 133.655 36.1676 134.168 35.7572C134.681 35.4494 135.194 35.2441 135.707 35.2441C135.912 35.2441 136.118 35.2441 136.22 35.2441C136.118 35.3467 136.118 37.3989 136.118 37.3989Z" fill="#575A65"/>
<path d="M145.965 39.9639C145.965 40.3743 145.965 40.6821 145.862 40.9899H139.295C139.295 41.9134 139.603 42.7343 140.219 43.2473C140.732 43.6577 141.45 43.9655 142.374 43.9655C143.297 43.9655 144.22 43.7603 145.041 43.4525L145.349 44.9916C144.426 45.402 143.297 45.6072 142.066 45.6072C140.527 45.6072 139.295 45.1968 138.475 44.2733C137.654 43.3499 137.141 42.2212 137.141 40.6821C137.141 39.2456 137.551 37.9118 138.372 36.9883C139.193 35.9622 140.321 35.4492 141.861 35.4492C143.297 35.4492 144.323 35.9622 145.041 36.9883C145.657 37.6039 145.965 38.7326 145.965 39.9639ZM143.81 39.3483C143.81 38.7326 143.707 38.117 143.4 37.7066C142.989 37.0909 142.476 36.7831 141.655 36.7831C140.937 36.7831 140.321 37.0909 139.911 37.7066C139.501 38.2196 139.295 38.7326 139.295 39.4509L143.81 39.3483Z" fill="#575A65"/>
<path d="M69.6286 23.2394C69.6286 24.4707 69.2182 25.3941 68.5 26.0097C67.7817 26.5228 66.8583 26.8306 65.627 26.8306C65.0113 26.8306 64.4983 26.8306 64.0879 26.728V20.1612C64.7035 20.0586 65.3192 20.0586 65.9348 20.0586C67.0635 20.0586 67.9869 20.2638 68.6026 20.7768C69.3208 21.3925 69.6286 22.2133 69.6286 23.2394ZM68.5 23.2394C68.5 22.4185 68.2947 21.9055 67.8843 21.3925C67.4739 20.982 66.8583 20.7768 66.0374 20.7768C65.7296 20.7768 65.4218 20.7768 65.2166 20.8794V25.9071C65.3192 25.9071 65.627 25.9071 65.9348 25.9071C66.7557 25.9071 67.3713 25.7019 67.8843 25.1889C68.3973 24.6759 68.5 24.1628 68.5 23.2394Z" fill="#575A65"/>
<path d="M75.6828 24.2658C75.6828 24.984 75.4776 25.5996 75.0671 26.1127C74.6567 26.6257 74.0411 26.8309 73.3228 26.8309C72.6046 26.8309 72.0916 26.6257 71.5785 26.1127C71.1681 25.5996 70.9629 25.0866 70.9629 24.3684C70.9629 23.6501 71.1681 23.0345 71.5785 22.5215C71.989 22.0084 72.6046 21.8032 73.3228 21.8032C74.0411 21.8032 74.5541 22.0084 75.0671 22.5215C75.4776 23.0345 75.6828 23.5475 75.6828 24.2658ZM74.5541 24.3684C74.5541 23.9579 74.4515 23.5475 74.2463 23.2397C74.0411 22.8293 73.7333 22.6241 73.3228 22.6241C72.9124 22.6241 72.6046 22.8293 72.2968 23.2397C72.0916 23.5475 71.989 23.9579 71.989 24.3684C71.989 24.7788 72.0916 25.1892 72.2968 25.497C72.502 25.9075 72.8098 26.1127 73.3228 26.1127C73.7333 26.1127 74.0411 25.9075 74.2463 25.497C74.4515 25.1892 74.5541 24.7788 74.5541 24.3684Z" fill="#575A65"/>
<path d="M83.7888 21.9058L82.2497 26.7282H81.2236L80.608 24.6761C80.4028 24.1631 80.3002 23.6501 80.1976 23.137C80.095 23.6501 79.9924 24.1631 79.7872 24.6761L79.1715 26.7282H78.1455L76.709 21.9058H77.8376L78.3507 24.1631C78.4533 24.6761 78.5559 25.1892 78.6585 25.7022C78.7611 25.2918 78.8637 24.7787 79.0689 24.1631L79.7872 21.9058H80.7106L81.3263 24.1631C81.5315 24.6761 81.6341 25.2918 81.7367 25.8048C81.8393 25.2918 81.9419 24.7787 82.0445 24.1631L82.6601 21.9058H83.7888Z" fill="#575A65"/>
<path d="M89.3289 26.7284H88.3028V23.958C88.3028 23.1372 87.995 22.7267 87.3793 22.7267C87.0715 22.7267 86.7637 22.8294 86.5585 23.0346C86.3533 23.2398 86.2507 23.5476 86.2507 23.8554V26.7284H85.2246V23.2398C85.2246 22.8294 85.2246 22.3163 85.2246 21.9059H86.0455V22.6241C86.1481 22.4189 86.3533 22.2137 86.5585 22.0085C86.8663 21.8033 87.1741 21.7007 87.4819 21.7007C87.8924 21.7007 88.3028 21.8033 88.6106 22.1111C89.021 22.4189 89.1236 23.0346 89.1236 23.7528V26.7284H89.3289Z" fill="#575A65"/>
<path d="M92.3034 26.7282H91.2773V19.751H92.3034V26.7282Z" fill="#575A65"/>
<path d="M98.6691 24.2658C98.6691 24.984 98.4639 25.5996 98.0535 26.1127C97.643 26.6257 97.0274 26.8309 96.3092 26.8309C95.5909 26.8309 95.0779 26.6257 94.5649 26.1127C94.1544 25.5996 93.9492 25.0866 93.9492 24.3684C93.9492 23.6501 94.1544 23.0345 94.5649 22.5215C94.9753 22.0084 95.5909 21.8032 96.3092 21.8032C97.0274 21.8032 97.5404 22.0084 98.0535 22.5215C98.4639 23.0345 98.6691 23.5475 98.6691 24.2658ZM97.5404 24.3684C97.5404 23.9579 97.4378 23.5475 97.2326 23.2397C97.0274 22.8293 96.7196 22.6241 96.3092 22.6241C95.8987 22.6241 95.5909 22.8293 95.2831 23.2397C95.0779 23.5475 94.9753 23.9579 94.9753 24.3684C94.9753 24.7788 95.0779 25.1892 95.2831 25.497C95.4883 25.9075 95.7961 26.1127 96.3092 26.1127C96.7196 26.1127 97.0274 25.9075 97.2326 25.497C97.4378 25.1892 97.5404 24.7788 97.5404 24.3684Z" fill="#575A65"/>
<path d="M103.797 26.7283H102.873L102.77 26.2153C102.463 26.6257 101.95 26.8309 101.334 26.8309C100.924 26.8309 100.513 26.7283 100.205 26.4205C100 26.1127 99.7949 25.8049 99.7949 25.3944C99.7949 24.7788 100 24.3684 100.513 24.0606C101.026 23.7527 101.744 23.5475 102.565 23.6501V23.5475C102.565 22.9319 102.257 22.6241 101.539 22.6241C101.026 22.6241 100.616 22.7267 100.308 22.9319L100.205 22.2136C100.616 21.9058 101.231 21.8032 101.847 21.8032C103.078 21.8032 103.694 22.4189 103.694 23.7527V25.497C103.797 26.1127 103.797 26.5231 103.797 26.7283ZM102.668 25.0866V24.3684C101.437 24.3684 100.924 24.6762 100.924 25.2918C100.924 25.497 101.026 25.7023 101.129 25.9075C101.231 26.0101 101.437 26.1127 101.642 26.1127C101.847 26.1127 102.052 26.0101 102.257 25.9075C102.463 25.8049 102.565 25.5996 102.668 25.2918C102.668 25.1892 102.668 25.1892 102.668 25.0866Z" fill="#575A65"/>
<path d="M109.952 26.7282H109.029V25.9073C108.721 26.523 108.208 26.8308 107.49 26.8308C106.874 26.8308 106.464 26.6256 106.053 26.1126C105.643 25.5995 105.438 25.0865 105.438 24.3683C105.438 23.5474 105.643 22.9318 106.053 22.4187C106.464 22.0083 106.977 21.7005 107.592 21.7005C108.208 21.7005 108.721 21.9057 108.926 22.3161V19.751H109.952V25.4969C109.85 25.9073 109.952 26.3178 109.952 26.7282ZM108.823 24.6761V23.8552C108.823 23.7526 108.823 23.65 108.823 23.5474C108.721 23.2396 108.618 23.0344 108.413 22.9318C108.208 22.7266 108.003 22.6239 107.695 22.6239C107.284 22.6239 106.977 22.8292 106.771 23.137C106.566 23.4448 106.464 23.8552 106.464 24.3683C106.464 24.8813 106.566 25.1891 106.771 25.4969C106.977 25.8047 107.284 26.0099 107.695 26.0099C108.003 26.0099 108.31 25.9073 108.516 25.5995C108.721 25.3943 108.823 25.0865 108.823 24.6761Z" fill="#575A65"/>
<path d="M119.083 24.2658C119.083 24.984 118.878 25.5996 118.468 26.1127C118.057 26.6257 117.441 26.8309 116.723 26.8309C116.005 26.8309 115.492 26.6257 114.979 26.1127C114.568 25.5996 114.363 25.0866 114.363 24.3684C114.363 23.6501 114.568 23.0345 114.979 22.5215C115.389 22.0084 116.005 21.8032 116.723 21.8032C117.441 21.8032 117.954 22.0084 118.468 22.5215C118.878 23.0345 119.083 23.5475 119.083 24.2658ZM118.057 24.3684C118.057 23.9579 117.954 23.5475 117.749 23.2397C117.544 22.8293 117.236 22.6241 116.826 22.6241C116.415 22.6241 116.108 22.8293 115.8 23.2397C115.595 23.5475 115.492 23.9579 115.492 24.3684C115.492 24.7788 115.595 25.1892 115.8 25.497C116.005 25.9075 116.313 26.1127 116.826 26.1127C117.236 26.1127 117.544 25.9075 117.749 25.497C117.954 25.1892 118.057 24.7788 118.057 24.3684Z" fill="#575A65"/>
<path d="M124.931 26.7284H123.905V23.958C123.905 23.1372 123.598 22.7267 122.879 22.7267C122.572 22.7267 122.264 22.8294 122.058 23.0346C121.853 23.2398 121.751 23.5476 121.751 23.8554V26.7284H120.725V23.2398C120.725 22.8294 120.725 22.3163 120.725 21.9059H121.648V22.6241C121.751 22.4189 121.956 22.2137 122.161 22.0085C122.469 21.8033 122.777 21.7007 123.187 21.7007C123.598 21.7007 124.008 21.8033 124.316 22.1111C124.726 22.4189 124.829 23.0346 124.829 23.7528V26.7284H124.931Z" fill="#575A65"/>
<path d="M132.11 22.7264H130.879V25.0863C130.879 25.7019 131.084 26.0098 131.495 26.0098C131.7 26.0098 131.803 26.0098 132.008 26.0098V26.8306C131.803 26.9332 131.495 26.9332 131.187 26.9332C130.776 26.9332 130.469 26.8306 130.161 26.5228C129.956 26.215 129.853 25.8046 129.853 25.1889V22.7264H129.135V21.9055H129.853V21.0847L130.879 20.7769V22.0081H132.11V22.7264Z" fill="#575A65"/>
<path d="M137.861 26.7282H136.835V23.9578C136.835 23.137 136.527 22.6239 135.911 22.6239C135.398 22.6239 135.091 22.8292 134.885 23.3422C134.885 23.4448 134.885 23.5474 134.885 23.7526V26.6256H133.859V19.751H134.885V22.6239C135.193 22.1109 135.706 21.8031 136.322 21.8031C136.732 21.8031 137.143 21.9057 137.451 22.2135C137.861 22.6239 137.964 23.137 137.964 23.8552C137.861 23.8552 137.861 26.7282 137.861 26.7282Z" fill="#575A65"/>
<path d="M143.709 24.1631C143.709 24.3683 143.709 24.4709 143.709 24.6761H140.425C140.425 25.1892 140.631 25.497 140.938 25.8048C141.246 26.01 141.554 26.1126 141.965 26.1126C142.478 26.1126 142.888 26.01 143.298 25.9074L143.504 26.6256C143.093 26.8309 142.478 26.9335 141.862 26.9335C141.144 26.9335 140.528 26.7282 140.118 26.3178C139.707 25.9074 139.502 25.2918 139.502 24.5735C139.502 23.8553 139.707 23.2396 140.118 22.7266C140.528 22.2136 141.144 21.9058 141.759 21.9058C142.478 21.9058 142.991 22.2136 143.298 22.7266C143.606 23.0344 143.709 23.5475 143.709 24.1631ZM142.683 23.8553C142.683 23.5475 142.58 23.2396 142.478 23.0344C142.272 22.7266 141.964 22.624 141.657 22.624C141.349 22.624 141.041 22.7266 140.836 23.0344C140.631 23.2396 140.528 23.5475 140.528 23.8553C140.425 23.8553 142.683 23.8553 142.683 23.8553Z" fill="#575A65"/>
</svg>
