<svg width="721" height="588" viewBox="0 0 721 588" fill="none" xmlns="http://www.w3.org/2000/svg">
<path d="M781.193 52.9828C714.716 31.6632 637.004 40.9326 569.591 51.1289C477.834 65.96 387.013 92.8413 303.683 134.554C235.333 168.85 163.238 217.978 132.341 290.28C101.443 362.581 129.532 446.933 190.391 495.134C270.912 558.166 388.886 565.581 488.133 567.435C616.405 571.143 741.869 558.166 865.46 522.015C933.809 502.549 1000.29 474.741 1062.08 440.444C1114.51 411.709 1176.31 373.704 1191.29 311.599C1203.46 258.764 1164.14 211.49 1126.69 179.047C1073.32 131.773 1005.9 100.257 938.491 77.0833C813.964 34.444 663.22 19.6129 531.202 43.7134C442.254 60.3983 355.179 95.6221 275.594 136.407C173.538 189.243 -49.3005 328.284 64.9274 465.472C95.8252 502.549 142.64 525.723 186.646 544.261C256.868 573.924 333.644 585.974 408.548 586.901C552.737 589.682 690.373 546.115 821.454 490.499C919.765 448.787 1024.63 403.366 1099.53 325.503C1159.46 263.398 1183.8 169.777 1123.88 99.3298C1065.83 31.6632 958.153 14.0513 873.886 4.78187C769.958 -6.34142 665.093 2.92799 563.036 22.3938C429.146 48.3481 297.129 96.549 183.837 173.485C133.277 207.782 87.3985 248.567 49.9467 295.841C30.2845 319.942 12.4949 346.823 4.06827 377.412C-29.6383 499.768 154.812 524.796 236.269 533.138C389.822 548.896 548.056 536.846 700.672 514.599C758.722 506.257 815.836 492.353 872.95 477.522C954.408 456.202 1056.46 426.54 1102.34 349.604C1151.03 268.033 1084.55 167.923 1019.01 117.869C935.682 54.8367 822.39 39.0787 720.334 35.3709C655.73 33.517 592.062 37.2248 529.33 41.8595C519.967 42.7864 519.967 56.6906 529.33 55.7636C636.067 47.4212 743.741 43.7134 849.543 64.1061C958.153 85.4257 1069.57 143.823 1099.53 257.837C1128.56 368.143 1004.03 422.832 918.828 450.64C856.097 471.033 791.492 486.791 726.888 497.914C623.896 514.599 -82.0709 595.243 26.5394 358.873C45.2653 317.161 78.9719 282.864 110.806 251.348C161.366 203.147 221.289 164.216 283.084 132.7C409.484 65.96 551.801 30.7362 692.245 17.759C827.072 4.78187 1199.72 13.1244 1138.86 233.736C1109.83 340.335 980.624 401.513 888.867 445.079C764.34 503.476 635.131 553.531 496.559 568.362C360.797 583.193 187.582 564.654 83.6534 465.472C20.9216 405.22 50.883 331.065 102.379 275.449C167.92 206.855 255.932 158.654 341.134 120.649C430.083 80.791 521.839 53.9097 618.278 49.275C780.257 41.8595 949.726 74.3024 1085.49 166.07C1142.6 204.074 1207.21 268.96 1166.95 340.335C1147.28 374.631 1110.77 397.805 1078 417.271C1046.16 436.736 1012.46 453.421 978.751 468.252C844.861 526.65 697.863 555.385 551.801 555.385C445.063 555.385 327.09 555.385 230.652 504.403C147.321 460.837 108.933 362.581 154.812 279.156C196.009 203.147 284.02 156.8 360.797 125.284C432.891 94.6951 511.54 74.3024 589.253 63.1792C649.176 54.8367 718.461 47.4212 777.448 66.8869C785.875 69.6677 789.62 55.7636 781.193 52.9828Z" fill="#00A0DF" fill-opacity="0.05"/>
</svg>
