<svg width="484" height="238" viewBox="0 0 484 238" fill="none" xmlns="http://www.w3.org/2000/svg">
<path d="M316.721 21.481C289.769 12.8373 258.262 16.5954 230.931 20.7293C193.729 26.7423 156.908 37.6409 123.123 54.5525C95.4118 68.4575 66.1822 88.3756 53.6553 117.689C41.1283 147.002 52.5165 181.201 77.1908 200.743C109.837 226.299 157.667 229.305 197.905 230.057C249.911 231.56 300.778 226.299 350.886 211.642C378.597 203.75 405.549 192.476 430.603 178.571C451.861 166.92 476.915 151.512 482.988 126.333C487.923 104.911 471.98 85.7449 456.796 72.5914C435.158 53.425 407.827 40.6474 380.495 31.2521C330.008 13.9647 268.891 7.95173 215.367 17.7228C179.304 24.4875 144.001 38.7683 111.735 55.3041C70.3579 76.7254 -19.9881 133.097 26.3237 188.717C38.8507 203.75 57.8309 213.145 75.6723 220.662C104.143 232.688 135.27 237.573 165.639 237.949C224.098 239.076 279.9 221.413 333.044 198.864C372.903 181.953 415.419 163.538 445.787 131.97C470.082 106.79 479.951 68.8333 455.657 40.2716C432.121 12.8373 388.467 5.69685 354.302 1.93873C312.166 -2.57102 269.65 1.1871 228.273 9.07916C173.99 19.6019 120.466 39.1442 74.5335 70.3366C54.0349 84.2416 35.4342 100.777 20.25 119.944C12.2783 129.715 5.06585 140.613 1.64941 153.015C-12.0164 202.623 62.7658 212.769 95.7914 216.152C158.047 222.541 222.2 217.655 284.075 208.636C307.611 205.253 330.767 199.616 353.923 193.603C386.948 184.959 428.325 172.933 446.926 141.741C466.665 108.669 439.713 68.0817 413.141 47.7878C379.356 22.2326 333.424 15.8438 292.047 14.3405C265.854 13.5889 240.041 15.0922 214.608 16.9712C210.812 17.347 210.812 22.9842 214.608 22.6084C257.883 19.2261 301.537 17.7228 344.433 25.9907C388.467 34.6344 433.64 58.3106 445.787 104.535C457.555 149.257 407.067 171.43 372.523 182.704C347.09 190.972 320.897 197.361 294.704 201.871C252.948 208.636 -33.2742 241.331 10.7599 145.499C18.352 128.587 32.0178 114.682 44.9244 101.905C65.423 82.3626 89.7177 66.5785 114.772 53.8008C166.018 26.7423 223.718 12.4615 280.659 7.2001C335.322 1.93873 486.405 5.32105 461.73 94.7644C449.963 137.983 397.577 162.786 360.376 180.45C309.889 204.126 257.503 224.42 201.322 230.433C146.279 236.446 76.0519 228.929 33.9158 188.717C8.4823 164.29 20.6297 134.225 41.5079 111.676C68.0802 83.8658 103.763 64.3236 138.307 48.9153C174.37 32.7553 211.571 21.8568 250.67 19.9777C316.342 16.9712 385.05 30.1247 440.093 67.3301C463.249 82.7384 489.442 109.045 473.119 137.983C465.147 151.888 450.342 161.283 437.056 169.175C424.15 177.067 410.484 183.832 396.818 189.845C342.535 213.521 282.937 225.171 223.718 225.171C180.443 225.171 132.613 225.171 93.5138 204.502C59.7289 186.838 44.1651 147.002 62.7658 113.179C79.4684 82.3626 115.151 63.572 146.279 50.7943C175.508 38.3925 207.395 30.1247 238.902 25.6149C263.197 22.2326 291.288 19.2261 315.203 27.1182C318.619 28.2456 320.138 22.6084 316.721 21.481Z" fill="#21145F"/>
</svg>
