<svg width="18" height="24" viewBox="0 0 18 24" fill="none" xmlns="http://www.w3.org/2000/svg">
<path fill-rule="evenodd" clip-rule="evenodd" d="M13.367 17.8642V22.9941C13.367 23.5675 12.973 23.9598 12.3971 23.9598C12.2152 23.9598 12.0031 23.9598 11.9121 23.8692L9.0326 22.1492C8.7598 21.9681 8.36576 21.9681 8.06265 22.1492L5.18314 23.8692C4.69816 24.1408 4.12226 23.9598 3.84946 23.5977C3.75853 23.4166 3.75853 23.2054 3.75853 23.0243V17.8944C5.18314 18.6488 6.81991 19.0411 8.54763 19.0411C10.2753 19.0411 11.9424 18.6488 13.367 17.8642ZM8.60825 17.1098C3.81915 17.1098 0 13.3076 0 8.53981C0 3.772 3.81915 0 8.60825 0C13.3973 0 17.2165 3.80218 17.2165 8.56999C17.2165 13.3378 13.367 17.1098 8.60825 17.1098ZM11.5484 5.61274L7.6383 9.98826L5.81966 8.35876C5.33469 7.96647 4.75878 7.96647 4.39506 8.35876C4.03133 8.75105 4.12226 9.32439 4.48599 9.6865L7.0624 11.9799C7.45644 12.3722 8.03234 12.2515 8.39607 11.8894L12.973 6.75943C13.367 6.36714 13.2458 5.7938 12.8821 5.43168C12.5183 5.12992 11.9424 5.12992 11.5484 5.61274Z" fill="#2D206A"/>
</svg>
