<svg width="26" height="36" viewBox="0 0 26 36" fill="none" xmlns="http://www.w3.org/2000/svg">
<path fill-rule="evenodd" clip-rule="evenodd" d="M19.845 26.5216V34.1376C19.845 34.9888 19.26 35.5712 18.405 35.5712C18.135 35.5712 17.82 35.5712 17.685 35.4368L13.41 32.8832C13.005 32.6144 12.42 32.6144 11.97 32.8832L7.695 35.4368C6.975 35.84 6.12 35.5712 5.715 35.0336C5.58 34.7648 5.58 34.4512 5.58 34.1824V26.5664C7.695 27.6864 10.125 28.2688 12.69 28.2688C15.255 28.2688 17.73 27.6864 19.845 26.5216ZM12.78 25.4016C5.67 25.4016 0 19.7568 0 12.6784C0 5.6 5.67 0 12.78 0C19.89 0 25.56 5.6448 25.56 12.7232C25.56 19.8016 19.845 25.4016 12.78 25.4016ZM17.145 8.3328L11.34 14.8288L8.64 12.4096C7.92 11.8272 7.065 11.8272 6.525 12.4096C5.985 12.992 6.12 13.8432 6.66 14.3808L10.485 17.7856C11.07 18.368 11.925 18.1888 12.465 17.6512L19.26 10.0352C19.845 9.4528 19.665 8.6016 19.125 8.064C18.585 7.616 17.73 7.616 17.145 8.3328Z" fill="#2D206A"/>
</svg>
