<svg width="88" height="111" viewBox="0 0 88 111" fill="none" xmlns="http://www.w3.org/2000/svg">
<path fill-rule="evenodd" clip-rule="evenodd" d="M70.7859 13.8045C69.8468 13.5692 70.1989 11.8043 70.1989 10.9807C70.0815 7.09803 69.025 3.33299 68.0859 0.273889C68.3207 0.273889 68.3207 0.0385742 68.4381 0.0385742C69.3772 0.273889 69.9642 3.09767 70.3163 4.62722C70.9033 7.33334 71.2554 9.21586 71.138 12.1573C71.138 12.7456 71.2554 13.5692 70.7859 13.8045Z" fill="#00A0DF"/>
<path fill-rule="evenodd" clip-rule="evenodd" d="M72.8977 3.8036C72.7803 6.0391 73.8368 8.74522 73.1325 10.6277C72.1934 10.8631 72.4281 9.80414 72.3107 9.21585C72.1934 7.6863 71.7238 5.68612 72.076 3.92126C72.1934 3.68594 72.5455 3.68594 72.8977 3.8036Z" fill="#00A0DF"/>
<path fill-rule="evenodd" clip-rule="evenodd" d="M35.9196 14.1576C35.2153 15.2165 33.924 15.9225 32.8676 16.7461C31.8111 17.452 30.872 18.7463 29.3459 18.6286C29.3459 18.511 29.3459 18.511 29.2285 18.3933C29.3459 17.805 30.0502 17.3344 30.5198 17.0991C32.0458 16.0401 33.8067 14.7459 35.2153 13.5693C35.6849 13.5693 35.8023 13.9223 35.9196 14.1576Z" fill="#00A0DF"/>
<path fill-rule="evenodd" clip-rule="evenodd" d="M5.86965 14.6282C5.86965 15.2165 5.28271 15.2165 5.04794 15.5695C4.57838 16.7461 4.81316 19.9228 4.93055 21.4524C5.16532 23.5702 5.86965 25.5704 6.33921 27.5706C6.4566 28.1589 6.92615 28.9825 6.22182 29.3354C5.28271 28.9825 5.04794 27.2176 4.69577 25.5704C4.10883 23.2172 3.75667 19.8052 3.87405 16.6284C3.99144 15.3342 4.69577 13.2163 5.86965 14.6282Z" fill="#00A0DF"/>
<path fill-rule="evenodd" clip-rule="evenodd" d="M1.64213 22.3937C0.70302 22.3937 0.70302 20.9818 0.70302 19.9229C0.585631 18.864 0.585631 17.5698 0.937796 16.8638C2.34645 15.9225 1.64213 18.511 1.75951 20.1582C1.75951 21.0995 2.22907 22.0407 1.64213 22.3937Z" fill="#00A0DF"/>
<path fill-rule="evenodd" clip-rule="evenodd" d="M83.9334 40.0422C84.2856 40.9835 84.6377 41.8071 84.7551 43.3366C84.8725 44.0426 85.4594 46.5134 84.5203 46.6311C83.6986 46.7487 83.816 44.6309 83.6986 43.6896C83.6986 41.9248 82.29 40.2776 83.9334 40.0422Z" fill="#00A0DF"/>
<path fill-rule="evenodd" clip-rule="evenodd" d="M1.7617 41.8069C2.7008 41.6893 2.23125 45.1013 2.34864 46.0426C2.58342 48.5134 3.52252 51.2195 4.22685 53.6903C4.57902 54.9846 4.93118 56.1611 5.40073 57.3377C5.7529 58.5143 6.692 59.4556 6.45723 60.6321C5.28334 60.6321 4.81379 58.8673 4.46163 57.8084C3.99207 56.6318 3.63991 55.2199 3.28774 53.9257C2.58342 51.3372 1.40953 48.5134 1.29215 45.9249C1.17476 44.6307 1.29215 42.8658 1.52692 42.0422C1.52692 41.9246 1.64431 41.8069 1.7617 41.8069Z" fill="#00A0DF"/>
<path fill-rule="evenodd" clip-rule="evenodd" d="M86.3984 41.8069C86.6332 42.2775 86.868 43.2188 86.5158 43.6894C86.3984 43.6894 86.281 43.6894 86.281 43.8071C85.4593 43.8071 85.1071 41.5716 86.3984 41.8069Z" fill="#00A0DF"/>
<path fill-rule="evenodd" clip-rule="evenodd" d="M2.58254 55.6907C1.29127 55.8083 1.05649 54.1611 0.704329 53.2199C0.352165 52.0433 0 50.7491 0 49.4548C1.05649 48.6312 1.29127 51.455 1.64343 52.3963C2.11299 53.9258 2.69993 54.7494 2.58254 55.6907Z" fill="#00A0DF"/>
<path fill-rule="evenodd" clip-rule="evenodd" d="M87.6879 77.5749C86.514 77.8102 84.7532 77.1043 82.7576 76.6337C81.3489 76.2807 77.8273 75.9277 78.7664 74.2805C80.0577 74.9865 82.1706 75.4571 84.0489 75.9277C85.4575 76.2807 87.3357 76.2807 87.6879 77.5749Z" fill="#00A0DF"/>
<path fill-rule="evenodd" clip-rule="evenodd" d="M83.5819 78.9868C82.8776 79.6927 81.5863 78.8691 80.7646 78.7515C80.4124 77.2219 83.4645 77.9279 83.5819 78.9868Z" fill="#00A0DF"/>
<path fill-rule="evenodd" clip-rule="evenodd" d="M12.6777 80.0458C12.7951 80.0458 13.1473 79.5752 13.2647 79.8105C15.0255 81.5754 15.6124 84.8698 16.1994 88.1642C16.3168 88.9878 16.9037 91.1056 15.8472 90.8703C15.2603 90.7527 15.2603 88.5172 15.1429 87.9289C14.9081 86.87 14.7907 85.9287 14.5559 84.9874C14.2038 82.8696 13.2647 81.8107 12.6777 80.0458Z" fill="#00A0DF"/>
<path fill-rule="evenodd" clip-rule="evenodd" d="M65.7362 99.224C65.8535 100.165 64.6797 100.518 64.0927 100.871C60.1015 103.224 55.8755 105.577 52.4713 108.754C51.8843 109.225 51.4148 109.931 50.5931 110.048C49.7714 109.225 51.0626 108.637 51.4148 108.166C55.0538 104.872 60.3363 101.459 64.797 99.1063C65.1492 98.9887 65.384 98.9887 65.7362 99.224Z" fill="#00A0DF"/>
<path fill-rule="evenodd" clip-rule="evenodd" d="M29.3456 103.695C28.6412 104.048 27.9369 103.46 27.2326 103.224C25.0022 102.401 22.1849 101.107 19.3676 101.224C19.0154 101.224 17.8415 101.577 17.8415 100.871C17.7241 100.048 19.485 100.048 20.3067 100.048C22.4197 100.165 25.5892 101.342 27.7021 102.165C28.5239 102.518 29.5803 102.754 29.3456 103.695Z" fill="#00A0DF"/>
<path fill-rule="evenodd" clip-rule="evenodd" d="M21.8339 103.46C21.8339 103.695 21.8339 103.813 21.8339 104.048C21.0122 104.636 19.6036 103.813 18.8992 103.577C18.6645 102.048 21.0122 103.342 21.8339 103.46Z" fill="#00A0DF"/>
<path fill-rule="evenodd" clip-rule="evenodd" d="M78.6489 49.6902C80.4097 51.1021 82.6401 52.0433 84.9879 53.1022C85.5748 53.3376 86.8661 53.6905 86.9835 54.2788C87.3356 55.6907 84.9879 56.9849 84.1662 57.6909C82.8749 58.7498 81.9358 59.6911 80.5271 60.1617C80.7619 63.4561 81.8184 66.2799 82.9923 69.1037C83.4618 70.3979 84.4009 71.6921 83.4618 72.7511C82.1706 73.457 79.8228 72.1628 78.4141 71.4568C76.8881 70.6332 75.5968 69.8096 74.423 69.2213C74.8925 74.0453 75.7142 79.4575 76.8881 84.1638C77.3577 86.164 77.475 86.2817 76.0664 87.5759C73.7186 89.6937 70.6665 91.2233 68.3188 93.2235C66.3232 94.8707 64.5623 96.5179 62.2146 97.9298C60.1016 99.224 58.106 100.989 55.993 102.518C54.5843 103.46 52.5887 104.401 51.1801 105.813C50.5931 106.401 50.3584 107.107 49.8888 107.225C48.9497 107.578 47.3063 106.519 46.1324 106.048C44.6063 105.46 43.3151 105.107 42.2586 104.754C39.676 103.813 37.2109 102.754 34.9805 101.812C32.398 100.754 30.0502 100.048 27.7024 98.9887C25.3547 98.0474 23.0069 97.1062 20.5418 96.0472C19.9548 95.9296 19.6027 96.5179 19.0157 96.1649C18.194 95.6943 18.4288 92.3999 18.3114 90.988C17.8418 81.34 15.0245 75.1042 13.3811 66.3975C13.1463 64.9857 12.7941 63.2208 12.3246 61.5736C11.855 60.044 11.5029 58.0439 10.9159 57.1026C10.329 56.279 9.2725 55.8084 8.56817 55.2201C7.86384 54.6318 6.80735 54.1612 6.3378 53.2199C5.86824 52.161 5.86824 50.1608 5.63347 48.6312C5.16392 45.6898 4.81175 44.3956 4.81175 40.7482C4.81175 39.6893 4.69436 38.1597 5.04653 37.5714C5.2813 37.2185 6.22041 36.6302 6.80735 36.2772C8.56817 34.983 10.5638 33.9241 12.0898 32.6298C10.9159 31.2179 9.85944 29.4531 8.92034 27.4529C8.21601 25.4527 7.15951 23.2172 6.92474 21.217C6.45519 16.9814 9.15511 16.1578 13.3811 16.3931C19.1331 16.746 24.2982 20.0405 28.2894 22.0406C29.5807 21.57 30.4024 20.6287 31.5763 19.8051C32.6328 19.0992 33.8066 18.6286 35.0979 17.805C36.037 17.2167 37.0935 16.3931 38.2674 15.4518C39.2065 14.7459 40.9673 13.5693 41.9064 13.5693C42.7281 13.5693 42.8455 14.2752 43.3151 14.7459C44.0194 15.3342 44.9585 15.5695 45.5455 16.1578C47.1889 12.628 48.4802 8.2747 50.9453 5.21561C52.7061 3.09777 56.2278 0.391648 59.632 0.0386754C63.0363 -0.314297 64.9145 1.80354 65.7362 4.15669C66.5579 6.6275 66.9101 9.6866 66.5579 12.5104C66.4406 13.687 65.8536 14.8635 66.0884 16.0401C66.3232 16.8637 67.3797 18.1579 67.9666 18.9815C70.0796 21.6877 71.9578 24.8644 72.0752 29.3354C72.7795 29.806 73.4838 30.159 74.0708 30.6296C74.7751 30.9826 75.5968 31.3356 76.1838 31.8062C77.1229 32.5122 77.8272 34.5123 78.5315 35.8066C80.0576 38.6304 80.7619 41.5718 82.4053 44.0426C82.2879 44.6309 82.7575 45.1015 82.6401 45.5722C82.5227 47.337 79.4706 48.7489 78.6489 49.6902ZM62.2146 6.39218C62.5667 5.68624 63.2711 4.39201 63.0363 3.5684C62.8015 2.62714 61.3929 2.03885 60.1016 2.03885C57.2843 2.15651 54.5843 4.15669 52.8235 5.92155C51.0627 7.68642 49.5366 11.2161 48.2454 14.2752C46.9541 17.6873 45.4281 21.4524 44.6063 24.9821C45.0759 25.5704 45.4281 26.1587 45.8976 26.7469C49.1845 23.9232 51.6496 20.3934 54.3496 16.8637C54.5843 16.5107 55.2887 15.9224 55.6408 15.0988C55.993 14.5106 56.1104 13.334 56.9321 13.2163C58.106 13.0987 58.2234 14.2752 57.8712 15.0988C57.4017 16.2754 56.1104 17.5697 55.2887 18.6286C52.7061 22.1583 49.5367 25.9233 46.6019 28.5118C50.1236 26.6293 54.3496 25.5704 59.2799 24.9821C60.9233 26.394 58.6929 27.0999 57.4017 27.3352C53.7626 27.8059 49.5367 28.8648 47.4237 30.3943C47.4237 31.1003 47.4237 31.8062 47.4237 32.5122C49.5367 32.6298 52.1192 33.6887 55.1713 33.8064C58.4582 33.9241 62.8015 34.1594 65.2667 33.5711C67.7318 32.9828 70.4317 31.9239 69.8448 28.5118C69.1405 28.9824 68.084 30.512 67.0275 29.806C66.9101 28.8648 68.084 28.8648 68.4361 28.5118C68.9057 28.0412 69.0231 27.3352 69.61 27.0999C69.61 26.6293 69.3753 26.2763 69.3753 25.8057C68.7883 26.041 68.3188 26.7469 67.6144 27.2176C67.0275 27.5705 66.2058 28.3941 65.5014 27.8059C65.6188 26.8646 66.6753 26.7469 67.2623 26.2763C67.8492 25.8057 68.4361 25.2174 68.7883 24.5114C68.5535 24.1585 68.3188 23.9232 68.2014 23.4525C67.3797 23.8055 66.6753 24.3938 65.8536 24.9821C65.2667 25.4527 64.445 26.5116 63.5058 25.9233C63.7406 24.9821 64.6797 24.5114 65.3841 24.0408C66.0884 23.4525 66.9101 22.9819 67.6144 22.3936C67.3797 22.0406 67.1449 21.6877 66.9101 21.3347C66.2058 21.8053 65.3841 22.6289 64.445 23.2172C63.5058 23.6878 62.4494 24.3938 61.5103 24.1585C61.0407 23.2172 63.1537 22.7466 63.9754 22.276C65.1493 21.57 65.6188 20.9817 66.3232 20.3934C65.971 19.8051 65.5014 19.2169 65.0319 18.7462C64.5623 19.3345 64.0928 20.0405 63.3885 20.6287C63.1537 20.7464 60.3364 22.8642 60.3364 21.4524C60.3364 20.8641 61.3929 20.7464 61.6276 20.6287C62.6841 20.0405 63.7406 18.7462 64.445 17.805C64.3276 17.452 64.0928 17.2167 63.9754 16.8637C63.0363 17.3343 61.745 19.3345 60.4538 18.2756C61.1581 16.9814 63.1537 16.8637 63.7406 15.3342C64.0928 14.5106 63.7406 13.5693 64.2102 12.628C63.7406 13.0987 63.0363 13.8046 62.4494 14.5106C61.9798 14.9812 61.1581 16.1578 60.3364 15.3342C60.6885 14.2752 61.745 13.8046 62.4494 12.981C63.1537 12.1574 63.7406 11.2161 64.3276 10.2749C64.2102 9.92191 64.445 9.21597 64.2102 8.98065C63.858 9.56894 63.1537 10.3925 62.5667 10.9808C62.0972 11.4515 61.2755 12.628 60.4538 11.9221C60.3364 11.3338 61.0407 10.9808 61.2755 10.6279C62.4494 9.56894 63.3885 8.51002 64.0928 7.09813C63.858 6.39218 63.9754 5.33327 63.5058 4.86264C62.6841 7.21579 61.6276 9.33362 59.5146 10.5102C59.3973 10.3925 59.1625 10.2749 59.1625 10.0396C60.4538 8.98065 61.3929 8.03939 62.2146 6.39218ZM41.5543 15.8048C38.3848 17.5697 35.5675 19.8051 32.5154 21.6877C34.3936 22.8642 35.9196 24.3938 37.5631 25.8057C39.4413 25.2174 41.3195 24.7468 42.9629 23.9232C43.7846 22.0406 44.2542 19.9228 44.9585 17.9226C43.6672 17.3343 42.7281 16.5107 41.5543 15.8048ZM25.0025 22.3936C21.4809 20.5111 17.6071 18.5109 13.0289 18.2756C11.1507 18.1579 9.74205 18.2756 9.03773 19.2169C8.80295 22.1583 10.0942 24.5114 11.1507 26.9823C12.0898 29.3354 13.6159 31.3356 15.3767 32.7475C16.081 33.3358 17.1375 33.5711 17.2549 34.3947C17.6071 36.0419 16.4332 37.1008 16.668 38.748C16.7853 39.6893 17.8418 40.8659 18.5462 41.4541C19.2505 42.0424 20.5418 42.3954 21.0113 43.1013C21.7157 44.2779 21.5983 45.8075 22.8895 46.2781C25.1199 46.984 26.646 45.1015 27.8198 43.9249C30.9893 40.9835 33.1023 37.3361 36.624 35.1006C36.3892 34.1594 36.1544 33.3358 35.8022 32.5122C33.3371 32.5122 32.398 33.5711 30.6372 34.7477C29.4633 35.4536 28.4068 36.2772 27.7024 36.8655C27.2329 37.3361 26.7633 38.2774 25.9416 38.1597C25.5895 38.1597 25.1199 37.8068 25.1199 37.3361C25.0025 36.2772 26.5286 35.3359 27.3503 34.7477C28.0546 34.1594 28.8763 33.6887 29.4633 33.2181C29.5807 33.1005 29.9328 32.8651 29.8154 32.7475C26.1764 32.9828 24.0634 32.3945 21.5983 31.1003C20.307 30.3943 18.0766 29.3354 17.8418 28.0412C17.6071 26.394 19.0157 25.3351 20.5418 25.4527C22.8895 25.5704 23.8286 27.4529 25.9416 28.3941C27.1155 28.8648 28.7589 29.1001 30.0502 29.3354C31.5763 29.5707 33.2197 29.3354 34.9805 29.5707C34.9805 28.9824 35.0979 28.5118 35.2153 28.1588C31.5763 27.0999 28.5242 24.3938 25.0025 22.3936ZM31.5763 22.3936C30.9893 22.6289 30.5198 22.9819 30.1676 23.3349C31.9284 24.3938 33.4545 25.8057 36.037 26.1587C34.9805 24.3938 33.2197 23.4525 31.5763 22.3936ZM45.6628 32.1592C46.015 30.0414 43.6672 26.7469 42.8455 25.9233C40.9673 27.5705 36.624 26.5116 37.2109 30.0414C37.5631 31.6886 38.3848 33.9241 38.9717 35.2183C42.1412 35.3359 45.3107 34.8653 45.6628 32.1592ZM20.1896 27.5705C22.0678 29.2178 24.6504 30.9826 27.8198 30.6296C24.2982 30.6296 23.3591 27.5705 20.1896 27.5705ZM71.8404 31.8062C69.8448 36.2772 63.3885 36.1595 56.9321 35.9242C58.2234 37.4538 60.219 39.101 62.0972 40.5129C63.9754 39.2186 65.7362 37.6891 67.7318 36.5125C69.8448 35.3359 71.9578 34.3947 73.7186 32.8651C73.0143 32.5122 72.5447 32.0415 71.8404 31.8062ZM13.6159 33.9241C11.9724 35.4536 9.74205 36.5125 7.98123 37.9244C9.38989 39.101 11.0333 39.9246 12.6768 40.8659C14.3202 41.8071 15.6115 43.219 17.2549 43.9249C17.6071 44.0426 18.194 44.1603 18.5462 44.2779C18.8983 44.3956 19.2505 44.8662 19.4853 44.6309C18.8983 43.572 17.6071 43.1013 16.5506 42.1601C14.9071 40.5129 13.7333 37.9244 15.1419 34.983C14.7897 34.7477 14.2028 34.277 13.6159 33.9241ZM80.5271 45.3368C80.5271 44.8662 79.7054 43.3367 79.2359 42.5131C77.9446 39.9246 76.5359 35.5713 75.1273 34.1594C71.6056 36.9832 66.9101 38.6304 63.6232 41.6895C65.8536 43.6896 68.3188 45.4545 71.3709 46.7487C71.1361 46.1604 70.0796 43.9249 71.3709 44.1603C71.8404 44.2779 71.8404 45.3368 72.1926 46.0428C72.5447 46.7487 72.8969 47.2194 73.0143 47.8076C74.0708 48.1606 75.2447 48.6312 76.3012 48.6312C75.2447 46.984 74.4229 44.5132 73.7186 42.5131C73.4838 41.9248 72.8969 40.7482 73.9534 40.5129C74.5403 40.8659 74.5403 41.6895 74.7751 42.3954C75.4794 44.3956 76.1838 46.5134 77.2403 48.2783C77.7098 48.1606 78.062 47.69 78.5315 47.4547C77.8272 45.4545 76.6533 43.219 76.0664 40.8659C75.949 40.1599 75.3621 39.101 76.3012 38.748C77.0055 39.101 76.8881 40.0422 77.1229 40.6305C77.7098 42.7484 78.6489 44.8662 79.4706 46.6311C79.4706 46.2781 80.5271 45.9251 80.5271 45.3368ZM76.6533 50.9844C75.1273 50.3961 73.7186 50.1608 72.31 49.5725C71.0187 48.9842 69.7274 48.2783 68.4361 47.5723C65.8536 46.2781 63.9754 44.3956 61.6276 42.866C59.2799 41.3365 57.5191 39.2186 55.4061 37.4538C54.9365 37.1008 53.6452 36.0419 53.1757 35.9242C52.5887 35.6889 51.6496 35.8066 50.8279 35.5713C49.5367 35.2183 48.0106 34.983 46.8367 34.7477C46.8367 34.63 46.8367 34.63 46.7193 34.63C46.2498 35.5713 45.3107 36.0419 44.489 36.6302C45.8976 38.6304 47.3063 40.7482 48.8323 42.6307C48.9497 41.8071 48.7149 40.6305 49.654 40.7482C50.4758 41.6895 48.9497 44.2779 50.3584 44.7486C50.3584 43.9249 50.241 43.1013 51.1801 43.1013C51.767 43.8073 51.0627 45.3368 51.4149 46.3958C51.5322 46.8664 52.0018 47.1017 52.354 47.337C52.354 46.2781 52.2366 44.5132 53.1757 44.5132C54.2322 44.6309 53.0583 47.1017 53.4105 48.5136C53.88 48.8666 54.467 50.0431 54.8191 49.8078C55.1713 48.6312 54.467 46.2781 55.6408 45.8075C56.6973 46.7487 55.5234 49.4549 55.8756 51.2197C56.1104 51.5727 56.3452 51.9257 56.6973 52.161C56.6973 50.7491 56.8147 49.5725 56.9321 48.3959C57.0495 47.69 56.8147 46.6311 57.6364 46.5134C58.5755 47.1017 57.8712 48.7489 57.8712 50.1608C57.8712 51.2197 57.6364 52.7493 57.8712 53.4552C57.9886 53.8082 58.6929 54.6318 58.8103 54.5141C58.6929 52.8669 58.9277 50.9844 59.0451 49.4549C59.0451 48.9842 58.8103 48.1606 59.3973 48.043C60.4538 48.3959 59.9842 50.0431 59.8668 51.2197C59.7494 54.3965 59.5146 56.632 61.745 57.5732C61.3929 56.0437 61.3929 53.8082 61.3929 51.9257C61.3929 51.1021 61.1581 50.0431 61.745 49.5725C62.5667 49.6902 62.332 50.7491 62.332 51.3374C62.332 53.9258 62.332 57.1026 63.1537 58.6321C63.3885 58.9851 64.0928 59.6911 64.445 59.5734C64.0928 58.2792 64.0928 56.279 63.9754 54.5141C63.9754 53.6905 63.5058 52.2786 64.5623 52.0433C65.2667 52.514 64.9145 53.8082 64.9145 54.6318C65.0319 56.8673 65.2667 59.3381 65.8536 60.9853C66.5579 61.4559 67.0275 62.0442 67.7318 62.3972C67.1449 60.5147 66.7927 58.0439 66.5579 55.6907C66.5579 54.9848 66.0884 53.8082 67.0275 53.6905C67.7318 53.9258 67.497 55.1024 67.497 55.6907C67.6144 58.5145 68.4361 61.4559 69.3753 63.4561C69.9622 63.8091 70.4317 64.162 71.0187 64.3974C70.6665 62.9855 70.3144 61.8089 69.9622 60.044C69.8448 59.3381 68.9057 55.6907 69.9622 55.573C70.7839 55.573 70.4317 56.632 70.5491 57.4556C70.7839 59.8087 71.8404 62.8678 72.4273 65.221C73.2491 65.5739 73.836 66.0446 74.6577 66.5152C73.9534 64.515 73.2491 61.8089 72.8969 59.3381C72.7795 58.6321 72.4274 57.4556 73.2491 57.1026C73.9534 57.4556 73.836 58.3968 73.9534 58.9851C74.3056 61.6912 74.8925 64.868 76.0664 66.6329C76.1838 66.9858 75.949 67.1035 76.0664 67.3388C76.7707 67.4565 77.475 68.2801 78.062 68.1624C77.2403 66.1622 76.7707 63.8091 76.3012 61.2206C76.1838 60.75 75.8316 58.9851 76.5359 58.7498C77.3577 58.5145 77.1229 59.5734 77.2403 60.5147C77.3577 61.9266 77.7098 63.1031 78.1794 64.9856C78.8837 67.6918 79.1185 69.692 81.4662 70.1626C80.6445 68.1624 79.3533 64.868 79.0011 61.9266C78.7663 59.9264 77.8272 57.5732 80.2924 57.8085C81.5836 56.632 83.2271 55.8084 84.2836 54.3965C81.4662 54.0435 79.1185 52.0433 76.6533 50.9844ZM41.789 37.1008C41.789 37.3361 41.789 37.6891 41.789 37.9244C42.1412 37.9244 42.1412 38.1597 42.4934 38.1597C43.3151 37.8068 43.0803 36.5125 41.789 37.1008ZM37.5631 36.9832C35.0979 38.395 33.1023 41.2188 31.2241 43.4543C30.6372 44.1603 29.4633 44.9839 29.2285 45.5722C28.9937 46.1604 28.8763 47.1017 28.7589 47.69C27.3503 52.6316 24.4156 55.926 21.7157 59.5734C21.833 60.2793 21.4809 60.6323 21.3635 61.103C25.0025 59.3381 27.9372 61.9266 29.4633 64.0444C30.0502 62.2795 31.5763 61.6912 32.6328 60.5147C33.924 59.2204 34.6284 57.2203 35.4501 55.3377C36.2718 53.4552 37.3283 51.5727 37.9152 49.6902C38.15 48.6313 38.15 47.5723 38.2674 46.5134C38.7369 43.572 39.676 40.6305 40.0282 37.4538C39.3239 37.4538 38.15 37.3361 37.5631 36.9832ZM45.4281 41.2188C44.8411 40.3952 44.3716 38.9833 43.4325 38.748C43.5499 39.6893 44.8411 40.2776 45.4281 41.2188ZM8.3334 52.3963C11.5029 55.2201 14.9071 57.9262 19.6027 59.1028C19.9548 58.3968 21.0113 57.8085 21.2461 56.7496C21.833 54.0435 20.6592 50.2785 21.0113 47.8076C15.8462 45.6898 11.6203 42.7484 7.2769 39.8069C7.15951 39.8069 7.15951 39.6893 7.04213 39.6893C6.68996 44.6309 7.74646 48.2783 8.3334 52.3963ZM42.6107 39.8069C42.4934 39.8069 42.4934 39.9246 42.376 39.9246C42.376 40.0423 42.2586 40.0422 42.1412 40.1599C43.4325 40.9835 44.2542 42.2777 45.3107 43.3367C45.7802 43.8073 46.6019 44.0426 46.4846 44.8662C46.3672 44.8662 46.3672 44.9839 46.2498 45.1015C44.1368 44.2779 43.4325 42.0424 41.5543 41.1012C41.4369 41.3365 41.2021 41.4541 41.2021 41.8071C42.0238 42.6307 43.0803 43.3367 43.902 44.1603C44.7237 44.9839 45.6628 45.8075 46.1324 46.984C45.1933 47.8076 44.0194 45.6898 43.1977 44.8662C42.376 44.0426 41.6716 43.572 41.0847 43.1013C40.9673 43.4543 40.8499 43.9249 40.8499 44.3956C41.789 44.8662 42.6107 45.6898 43.3151 46.3958C44.0194 47.1017 44.8411 47.9253 45.1933 48.9842C44.489 49.8078 43.4325 48.043 42.7281 47.337C41.9064 46.5134 41.3195 45.6898 40.6151 45.4545C40.6151 45.9251 40.4978 46.1604 40.3804 46.6311C41.4369 46.984 41.9064 48.043 42.7281 48.8666C43.1977 49.3372 44.489 50.2785 43.3151 50.7491C42.1412 49.9255 41.4369 48.5136 40.263 47.69C40.1456 49.1019 39.9108 50.2785 39.5587 51.455C41.2021 51.9257 43.0803 52.0433 44.3716 52.7493C46.2498 50.9844 48.7149 49.8078 50.5931 48.1606C49.4193 46.3958 48.128 44.7486 46.9541 42.9837C46.7193 42.7484 46.6019 43.3367 46.1324 43.219C44.6063 42.1601 43.7846 40.8658 42.6107 39.8069ZM26.1764 47.9253C26.2938 47.9253 26.5286 47.9253 26.5286 48.043C26.5286 47.8076 26.7633 47.8076 26.646 47.5723C26.4112 47.5723 26.1764 47.69 26.1764 47.9253ZM22.3026 55.573C23.4765 53.6905 24.8851 51.9257 25.8242 49.9255C24.533 49.4549 23.2417 48.9842 21.833 48.6312C22.0678 50.8667 22.1852 53.2199 22.3026 55.573ZM56.9321 55.6907C55.2887 53.5729 53.7626 51.2197 51.6496 49.4549C50.9453 49.9255 50.3584 50.6314 49.5367 51.2197C48.2454 52.0433 46.015 52.9846 45.7802 54.1612C45.5455 54.9848 45.8976 56.7496 46.015 57.6909C46.4846 61.3383 47.0715 64.6327 47.5411 67.8094C48.128 67.8094 48.8323 67.2211 49.4193 66.8682C48.8323 65.4563 48.8323 63.4561 48.4802 61.6912C48.2454 60.397 47.5411 58.6321 48.7149 58.1615C49.3019 59.2204 49.4193 60.6323 49.654 62.0442C49.8888 63.4561 49.8888 64.9856 50.241 66.2799C50.9453 66.1622 51.2975 65.6916 51.8844 65.4563C51.5322 64.515 51.1801 62.9855 50.9453 61.2206C50.7105 60.044 49.7714 57.2203 50.9453 57.1026C51.6496 58.0439 51.6496 59.5734 51.8844 60.8676C52.1192 62.2795 52.354 63.6914 52.7061 64.868C53.2931 64.7503 53.7626 64.3974 53.9974 64.0444C53.7626 62.7502 53.2931 61.4559 53.0583 59.9264C52.9409 58.9851 52.1192 55.926 53.0583 55.926C53.6452 55.926 53.6452 56.8673 53.7626 57.5732C54.1148 59.6911 54.467 61.8089 55.0539 63.5738C55.5234 63.4561 56.1104 63.3384 56.3452 62.8678C55.993 61.6912 55.6408 60.5147 55.4061 58.9851C55.2887 58.1615 54.467 55.2201 55.1713 55.1024C55.7582 54.9848 55.993 56.0437 56.1104 56.5143C56.5799 58.6321 56.6973 60.9853 57.4017 62.3972C57.7538 62.0442 58.3408 62.0442 58.4582 61.5736C57.8712 59.5734 57.1669 57.9262 56.9321 55.6907ZM38.5022 53.2199C36.6239 57.3379 34.8631 61.4559 32.2806 64.868C36.7413 65.9269 40.263 67.8094 45.5455 67.8094C44.7237 63.6914 44.0194 59.3381 43.6672 54.6318C42.376 53.9258 40.4978 53.5729 38.5022 53.2199ZM59.3973 60.9853C59.7494 60.8676 59.9842 60.75 60.219 60.6323C60.1016 58.9851 59.2799 57.9262 58.2234 57.1026C58.5755 58.3968 58.8103 59.8087 59.3973 60.9853ZM13.7333 59.1028C15.1419 64.2797 16.1984 69.339 17.6071 74.5159C19.1331 80.5164 20.4244 86.9876 20.5418 94.1647C22.6548 94.6354 24.1808 95.6943 26.1764 96.2826C25.2373 84.9874 23.4765 74.5159 21.9504 63.8091C20.1896 63.9267 17.8418 64.515 16.1984 63.9267C15.3767 62.2795 17.9592 61.9266 18.0766 60.75C16.4332 60.2793 15.0245 59.6911 13.7333 58.8675C13.7333 58.9851 13.7333 59.1028 13.7333 59.1028ZM59.632 63.1031C59.2799 75.2219 61.5102 84.7521 63.7406 94.1647C64.7971 93.4588 65.6188 92.7528 66.5579 91.9292C64.3276 82.6343 63.3885 72.0451 62.4494 61.4559C61.6276 62.2795 60.4538 62.5148 59.632 63.1031ZM67.497 91.1056C69.8448 89.3408 73.1317 87.6936 75.2447 85.3404C74.0708 79.8105 72.8969 74.3983 72.6621 68.0447C69.61 66.0446 66.3232 64.2797 63.7406 61.8089C64.3276 72.1628 65.3841 82.1637 67.497 91.1056ZM26.059 64.162C25.3547 63.4561 24.1808 62.8678 23.0069 63.4561C24.6504 74.2806 26.4112 85.1051 27.3503 96.6355C28.172 96.9885 28.9937 97.3415 29.8154 97.6945C29.4633 85.6934 27.9372 74.6336 26.059 64.162ZM58.4582 63.8091C54.2322 65.6916 51.0627 68.633 46.8367 70.5156C46.2498 69.692 44.6063 69.9273 43.3151 69.692C43.6672 82.9873 45.0759 95.2236 49.3019 104.519C53.6452 101.224 58.3408 98.1651 62.8015 94.8707C60.4538 85.4581 58.4582 75.6925 58.4582 63.8091ZM30.8719 98.2827C33.3371 99.224 35.9196 99.9299 38.15 101.107C40.0282 99.1063 42.376 97.5768 44.489 95.9296C44.3716 95.2236 44.1368 94.753 44.0194 94.0471C43.4325 94.4 42.8455 95.106 42.2586 95.5766C40.9673 96.6355 39.676 97.5768 38.3848 98.6357C37.7978 99.1063 37.2109 100.048 36.3892 99.9299C36.037 98.9887 37.0935 98.4004 37.6804 98.0474C39.5587 96.4002 41.6716 94.9883 43.3151 93.2235C43.5499 93.1058 43.7846 93.5764 43.7846 93.1058C43.6672 92.2822 43.4325 91.5763 43.4325 90.635C41.2021 92.5175 38.2674 93.8118 36.3892 96.0472C36.037 96.4002 36.037 97.1062 35.3327 96.9885C34.6284 95.9296 35.8022 95.106 36.3892 94.5177C37.7978 93.2235 39.3239 92.1646 40.9673 90.988C41.5543 90.5173 43.0803 89.8114 43.1977 89.1054C43.3151 88.6348 42.7281 87.9289 42.9629 87.4582C40.9673 88.6348 37.9152 90.635 36.624 92.3999C36.3892 92.6352 36.1544 93.6941 35.6848 93.6941C34.3936 93.5764 36.037 91.6939 36.2718 91.3409C37.6804 89.6937 38.8543 88.9878 40.6151 87.8112C41.3195 87.3406 42.6107 86.6346 42.8455 86.0463C43.0803 85.3404 42.4934 84.3991 42.6107 83.6932C40.8499 84.8698 38.9717 86.3993 37.3283 87.6936C36.7413 88.1642 36.2718 89.1054 35.4501 88.9878C34.9805 88.0465 36.037 87.4582 36.624 86.9876C38.5022 85.3404 40.7325 83.6932 42.6107 82.2813C42.376 81.693 42.7281 80.3988 42.376 79.8105C40.3804 81.2224 38.15 82.9873 36.2718 84.5168C35.8022 84.9874 34.9805 86.164 34.1588 85.3404C35.6848 83.4579 38.2674 81.5754 40.3804 80.0458C40.9673 79.6928 42.2586 78.8692 42.376 78.1633C42.6107 77.3397 41.9064 76.2808 42.1412 75.4572C39.7934 76.7514 37.9152 78.8692 36.1544 80.6341C35.6848 81.1047 34.9805 82.2813 34.0414 81.9283C34.0414 80.9871 34.9805 80.2811 35.5675 79.6928C36.8587 78.3986 38.15 77.1044 39.676 75.8101C40.263 75.3395 41.789 74.5159 41.9064 73.9276C42.1412 73.2217 41.5543 72.3981 41.789 71.6921C39.7934 73.5747 37.6804 75.2219 35.6848 76.9867C34.9805 77.575 34.3936 78.281 33.5719 78.7516C32.8675 77.575 34.3936 76.7514 34.9805 76.2808C36.6239 74.7512 38.2674 73.5747 39.7934 72.0451C40.4978 71.3392 41.789 70.6332 41.6716 69.2213C40.6152 68.633 39.676 69.8096 38.7369 70.5156C37.2109 71.6921 35.9196 72.6334 34.6284 73.6923C34.0414 74.1629 33.3371 75.2219 32.398 74.7512C32.1632 73.81 33.3371 73.457 33.8066 73.104C35.6848 71.6921 37.5631 70.0449 39.2065 68.633C38.5022 68.5154 37.9152 68.2801 37.3283 68.1624C36.037 69.4566 34.6284 70.7509 32.7501 71.4568C31.6936 70.1626 36.1544 68.8683 36.2718 67.8094C34.7457 67.3388 33.3371 66.3975 31.3415 66.7505C30.7545 67.3388 30.5198 68.2801 29.698 68.2801C28.4068 68.2801 28.4068 66.1622 27.5851 65.3386C29.2285 75.6925 30.5198 86.517 30.8719 98.2827ZM44.6063 97.1062C42.7281 98.5181 40.7325 99.8123 39.2065 101.577C40.8499 102.165 42.4934 102.754 44.1368 103.342C44.7237 102.636 45.4281 101.93 46.015 101.224C45.8976 100.754 45.6628 100.401 45.6628 99.9299C44.3716 100.636 43.4325 101.577 42.6107 102.518C40.8499 101.107 44.8411 99.6946 45.3107 98.6357C44.9585 98.1651 45.0759 97.3415 44.6063 97.1062ZM45.1933 103.695C45.8976 103.813 46.4846 104.166 47.0715 104.283C46.8367 103.695 46.6019 102.871 46.2498 102.401C45.8976 102.871 45.5455 103.224 45.1933 103.695Z" fill="#00A0DF"/>
</svg>
