<svg width="13" height="24" viewBox="0 0 13 24" fill="none" xmlns="http://www.w3.org/2000/svg">
<path d="M12.0128 0.004804L9.01876 0C5.65501 0 3.48121 2.23026 3.48121 5.68217V8.30203H0.470791C0.210655 8.30203 0 8.51293 0 8.77306V12.5689C0 12.8291 0.210895 13.0397 0.470791 13.0397H3.48121V22.6179C3.48121 22.8781 3.69186 23.0887 3.952 23.0887H7.87973C8.13987 23.0887 8.35052 22.8778 8.35052 22.6179V13.0397H11.8704C12.1305 13.0397 12.3412 12.8291 12.3412 12.5689L12.3426 8.77306C12.3426 8.64816 12.2929 8.52854 12.2048 8.44015C12.1166 8.35175 11.9965 8.30203 11.8716 8.30203H8.35052V6.08114C8.35052 5.01369 8.60489 4.4718 9.99541 4.4718L12.0124 4.47108C12.2723 4.47108 12.4829 4.26019 12.4829 4.00029V0.475596C12.4829 0.21594 12.2725 0.0052844 12.0128 0.004804Z" fill="#00A0DF"/>
</svg>
