<svg width="38" height="23" viewBox="0 0 38 23" fill="none" xmlns="http://www.w3.org/2000/svg">
<path opacity="0.2" d="M13.65 11.2902C13.65 10.6502 13.41 10.0502 12.97 9.61023L4.05 0.690235C3.13 -0.229765 1.61 -0.229765 0.689999 0.690235C-0.230001 1.61024 -0.230001 3.13024 0.689999 4.05024L7.89 11.2502L0.69 18.4502C-0.23 19.3702 -0.23 20.8902 0.69 21.8102C1.17 22.2902 1.77 22.4902 2.37 22.4902C2.97 22.4902 3.61 22.2502 4.05 21.8102L12.97 12.9702C13.41 12.5302 13.65 11.9302 13.65 11.2902Z" fill="#8D269D"/>
<path opacity="0.7" d="M25.1302 9.61023L16.2102 0.690235C15.2902 -0.229765 13.7702 -0.229765 12.8502 0.690235C11.9302 1.61024 11.9302 3.13024 12.8502 4.05024L20.0502 11.2502L12.8502 18.4502C11.9302 19.3702 11.9302 20.8902 12.8502 21.8102C13.3302 22.2902 13.9302 22.4902 14.5302 22.4902C15.1302 22.4902 15.7702 22.2502 16.2102 21.8102L25.1302 12.8902C26.0502 12.0502 26.0502 10.5302 25.1302 9.61023Z" fill="#8D269D"/>
<path d="M37.2893 9.60978L28.3693 0.689783C27.4493 -0.230217 25.9293 -0.230217 25.0093 0.689783C24.0893 1.60978 24.0893 3.12979 25.0093 4.04979L32.2093 11.2498L24.9693 18.4898C24.0493 19.4098 24.0493 20.9298 24.9693 21.8498C25.4493 22.3298 26.0493 22.5298 26.6493 22.5298C27.2493 22.5298 27.8893 22.2898 28.3293 21.8498L37.2493 12.9298C38.2093 12.0498 38.2093 10.5298 37.2893 9.60978Z" fill="#8D269D"/>
</svg>
