<svg width="737" height="723" viewBox="0 0 737 723" fill="none" xmlns="http://www.w3.org/2000/svg">
<path d="M0 713C0 718.523 4.47715 723 10 723H727C732.523 723 737 718.523 737 713V10C737 4.47715 732.523 0 727 0H10C4.47715 0 0 4.47715 0 10V713ZM98.1196 638.669C92.5967 638.669 88.1196 634.192 88.1196 628.669V351.458C88.1196 341.121 101.889 337.578 106.878 346.632L259.623 623.843C263.295 630.507 258.474 638.669 250.864 638.669H98.1196ZM652.314 636.879C652.314 637.867 651.512 638.669 650.524 638.669H398.456C394.803 638.669 391.441 636.678 389.686 633.475L88.2297 83.4079C88.1575 83.276 88.1196 83.128 88.1196 82.9776C88.1196 82.4832 88.5204 82.0824 89.0148 82.0824H341.983C345.633 82.0824 348.992 84.0703 350.749 87.269L652.093 636.017C652.238 636.281 652.314 636.578 652.314 636.879ZM652.314 370.418C652.314 380.755 638.544 384.298 633.555 375.244L480.81 98.0328C477.138 91.3681 481.959 83.2068 489.569 83.2068H642.314C647.836 83.2068 652.314 87.684 652.314 93.2068V370.418Z" fill="#C9BEFF" fill-opacity="0.07"/>
</svg>
