<svg width="19" height="20" viewBox="0 0 19 20" fill="none" xmlns="http://www.w3.org/2000/svg">
<path d="M9.37587 7.66443C8.91599 7.66443 8.46643 7.8008 8.08405 8.05629C7.70167 8.31179 7.40364 8.67494 7.22765 9.09982C7.05166 9.5247 7.00562 9.99222 7.09534 10.4433C7.18505 10.8943 7.40651 11.3086 7.7317 11.6338C8.05688 11.959 8.4712 12.1805 8.92225 12.2702C9.37329 12.3599 9.84082 12.3139 10.2657 12.1379C10.6906 11.9619 11.0537 11.6638 11.3092 11.2815C11.5647 10.8991 11.7011 10.4495 11.7011 9.98964C11.7011 9.68429 11.6409 9.38193 11.5241 9.09982C11.4072 8.81771 11.236 8.56138 11.02 8.34547C10.8041 8.12955 10.5478 7.95827 10.2657 7.84142C9.98359 7.72457 9.68122 7.66443 9.37587 7.66443ZM18.6861 5.36734C18.6812 4.64329 18.5479 3.92586 18.2923 3.24839C18.1041 2.75265 17.813 2.30245 17.438 1.9275C17.0631 1.55255 16.6129 1.26138 16.1171 1.07319C15.4397 0.817661 14.7222 0.684333 13.9982 0.679401C12.7887 0.613769 12.4324 0.61377 9.37587 0.61377C6.31934 0.61377 5.96306 0.613769 4.75357 0.679401C4.02952 0.684333 3.31209 0.817661 2.63462 1.07319C2.13888 1.26138 1.68868 1.55255 1.31373 1.9275C0.938784 2.30245 0.647608 2.75265 0.459418 3.24839C0.203891 3.92586 0.0705637 4.64329 0.065631 5.36734C-6.28701e-08 6.57682 0 6.93311 0 9.98964C0 13.0462 -6.28701e-08 13.4025 0.065631 14.6119C0.0757232 15.3385 0.20887 16.0582 0.459418 16.7403C0.646774 17.2337 0.937708 17.6813 1.31262 18.0529C1.68596 18.4301 2.13713 18.7213 2.63462 18.9061C3.31209 19.1616 4.02952 19.295 4.75357 19.2999C5.96306 19.3655 6.31934 19.3655 9.37587 19.3655C12.4324 19.3655 12.7887 19.3655 13.9982 19.2999C14.7222 19.295 15.4397 19.1616 16.1171 18.9061C16.6146 18.7213 17.0658 18.4301 17.4391 18.0529C17.814 17.6813 18.105 17.2337 18.2923 16.7403C18.5476 16.0595 18.6809 15.339 18.6861 14.6119C18.7517 13.4025 18.7517 13.0462 18.7517 9.98964C18.7517 6.93311 18.7517 6.57682 18.6861 5.36734ZM16.3046 12.868C16.2746 13.4466 16.1511 14.0165 15.939 14.5557C15.757 15.0054 15.4864 15.414 15.1433 15.7571C14.8002 16.1001 14.3917 16.3707 13.9419 16.5528C13.3977 16.753 12.8246 16.8638 12.2449 16.8809C11.5042 16.8809 11.3073 16.8809 9.37587 16.8809C7.44444 16.8809 7.24755 16.8809 6.50686 16.8809C5.92717 16.8638 5.35408 16.753 4.80982 16.5528C4.34488 16.38 3.925 16.1043 3.58158 15.7464C3.24186 15.4101 2.97951 15.0037 2.81276 14.5557C2.6117 14.012 2.50393 13.4383 2.49398 12.8587C2.49398 12.118 2.49398 11.9211 2.49398 9.98964C2.49398 8.05821 2.49398 7.86132 2.49398 7.12062C2.50393 6.54103 2.6117 5.96728 2.81276 5.42359C2.98554 4.95865 3.26119 4.53877 3.61909 4.19535C3.95693 3.85747 4.36284 3.59538 4.80982 3.42653C5.35408 3.22627 5.92717 3.11545 6.50686 3.09838C7.24755 3.09838 7.44444 3.09838 9.37587 3.09838C11.3073 3.09838 11.5042 3.09838 12.2449 3.09838C12.8246 3.11545 13.3977 3.22627 13.9419 3.42653C14.4069 3.59931 14.8267 3.87496 15.1702 4.23286C15.5099 4.56921 15.7722 4.97555 15.939 5.42359C16.1392 5.96785 16.2501 6.54094 16.2671 7.12062C16.2671 7.86132 16.2671 8.05821 16.2671 9.98964C16.2671 11.9211 16.3328 12.118 16.3046 12.8587V12.868ZM14.8045 5.89239C14.6929 5.58953 14.5169 5.3145 14.2886 5.08626C14.0604 4.85803 13.7854 4.68202 13.4825 4.57039C13.0667 4.42624 12.6287 4.35642 12.1886 4.36412C11.4573 4.36412 11.251 4.36412 9.37587 4.36412C7.5007 4.36412 7.29443 4.36412 6.56311 4.36412C6.12082 4.36844 5.68278 4.45097 5.26924 4.60789C4.97102 4.71445 4.6989 4.88327 4.47096 5.10313C4.24303 5.32298 4.0645 5.58883 3.94724 5.88301C3.81108 6.30058 3.74456 6.73771 3.75035 7.17688C3.75035 7.9082 3.75035 8.11447 3.75035 9.98964C3.75035 11.8648 3.75035 12.0711 3.75035 12.8024C3.75964 13.2442 3.84202 13.6814 3.99412 14.0963C4.10575 14.3991 4.28176 14.6742 4.50999 14.9024C4.73823 15.1306 5.01326 15.3066 5.31612 15.4183C5.71616 15.5654 6.13712 15.6477 6.56311 15.662C7.29443 15.662 7.5007 15.662 9.37587 15.662C11.251 15.662 11.4573 15.662 12.1886 15.662C12.6309 15.6577 13.069 15.5752 13.4825 15.4183C13.7854 15.3066 14.0604 15.1306 14.2886 14.9024C14.5169 14.6742 14.6929 14.3991 14.8045 14.0963C14.9614 13.6827 15.044 13.2447 15.0483 12.8024C15.0483 12.0711 15.0483 11.8648 15.0483 9.98964C15.0483 8.11447 15.0483 7.9082 15.0483 7.17688C15.0485 6.73415 14.9659 6.29529 14.8045 5.88301V5.89239ZM9.37587 13.5712C8.90597 13.5712 8.44069 13.4785 8.00668 13.2984C7.57267 13.1183 7.17845 12.8543 6.84662 12.5216C6.51479 12.1889 6.25186 11.794 6.07289 11.3595C5.89392 10.9251 5.80243 10.4595 5.80366 9.98964C5.80367 9.28087 6.01396 8.58804 6.40793 7.99885C6.80189 7.40966 7.36181 6.95061 8.01681 6.6798C8.67181 6.409 9.39242 6.33862 10.0874 6.47758C10.7824 6.61654 11.4206 6.95858 11.9211 7.46041C12.4216 7.96225 12.762 8.6013 12.8992 9.29667C13.0363 9.99205 12.964 10.7125 12.6915 11.3668C12.419 12.021 11.9585 12.5798 11.3682 12.9722C10.778 13.3646 10.0846 13.5731 9.37587 13.5712ZM13.1262 7.11125C12.919 7.08931 12.7272 6.99145 12.5878 6.83651C12.4483 6.68157 12.3712 6.48053 12.3712 6.27211C12.3712 6.06369 12.4483 5.86265 12.5878 5.70771C12.7272 5.55277 12.919 5.45491 13.1262 5.43297C13.3335 5.45491 13.5253 5.55277 13.6647 5.70771C13.8041 5.86265 13.8812 6.06369 13.8812 6.27211C13.8812 6.48053 13.8041 6.68157 13.6647 6.83651C13.5253 6.99145 13.3335 7.08931 13.1262 7.11125Z" fill="#00A0DF"/>
</svg>
