<svg width="153" height="44" viewBox="0 0 153 44" fill="none" xmlns="http://www.w3.org/2000/svg">
<path d="M0 44H44.5443V0H0V44ZM5.32595 38.8678V19.0233L16.1854 38.8678H5.32595ZM39.4259 38.8678H23.7247L5.32595 5.06376V4.99533H21.0271L39.4259 38.7309V38.8678ZM39.4259 24.9082L28.5665 5.06376H39.4259V24.9082Z" fill="#21145F"/>
<path d="M55.9559 42.0156L55.8867 12.1804L76.4988 33.3935L76.4297 14.028H80.7873V43.6579L60.1751 22.4448V41.9471L55.9559 42.0156Z" fill="#00A0DF"/>
<path d="M82.6567 27.919C82.5875 23.9501 84.04 20.5287 86.9451 17.7231C89.8501 14.9175 93.3086 13.4805 97.3895 13.4805C101.47 13.4805 104.86 14.9859 107.765 17.7231C110.67 20.5971 112.053 23.9501 112.053 27.9875C112.053 32.0248 110.67 35.4463 107.765 38.2519C104.86 41.0574 101.263 42.426 97.2511 42.426C93.5852 42.426 90.2652 41.1943 87.3601 38.7309C84.2475 35.9937 82.6567 32.3669 82.6567 27.919ZM86.8759 27.919C86.8759 31.0668 87.9826 33.5987 90.0576 35.5831C92.1327 37.5676 94.5536 38.5256 97.2511 38.5256C100.225 38.5256 102.715 37.5676 104.79 35.5147C106.796 33.4618 107.765 30.9984 107.765 28.0559C107.765 25.045 106.796 22.5816 104.79 20.5971C102.785 18.5442 100.295 17.5862 97.3203 17.5862C94.4152 17.5862 91.9252 18.5442 89.9193 20.5971C87.9134 22.5131 86.8759 24.9766 86.8759 27.919Z" fill="#00A0DF"/>
<path d="M114.681 14.0279L122.497 33.3249L130.382 13.9595H135.017L122.428 43.9999L110.047 14.0279H114.681Z" fill="#00A0DF"/>
<path d="M145.322 35.1726H133.287L130.105 41.8786L125.471 41.9471L139.443 12.2488L153 41.8786H148.365L145.322 35.1726ZM143.593 31.1352L139.443 21.692L135.016 31.2037L143.593 31.1352Z" fill="#00A0DF"/>
</svg>
