<svg width="707" height="664" viewBox="0 0 707 664" fill="none" xmlns="http://www.w3.org/2000/svg">
<g style="mix-blend-mode:multiply">
<path d="M0 654C0 659.523 4.47715 664 10 664H697C702.523 664 707 659.523 707 654V10C707 4.47716 702.523 0 697 0H10C4.47717 0 0 4.47715 0 10V654ZM94.5326 586.551C89.0098 586.551 84.5326 582.073 84.5326 576.551V324.501C84.5326 314.263 98.0926 310.64 103.2 319.513L248.265 571.562C252.102 578.229 247.29 586.551 239.598 586.551H94.5326ZM625.761 584.92C625.761 585.82 625.031 586.551 624.13 586.551H382.352C378.767 586.551 375.455 584.631 373.674 581.519L84.6404 76.6051C84.5698 76.4817 84.5326 76.342 84.5326 76.1998C84.5326 75.7493 84.8978 75.3841 85.3483 75.3841H327.947C331.53 75.3841 334.839 77.3008 336.621 80.4085L625.545 584.108C625.686 584.355 625.761 584.635 625.761 584.92ZM625.761 338.466C625.761 348.704 612.201 352.328 607.094 343.454L462.029 91.4051C458.192 84.7384 463.004 76.4168 470.696 76.4168H615.761C621.284 76.4168 625.761 80.8939 625.761 86.4168V338.466Z" fill="#21145F" fill-opacity="0.03"/>
</g>
</svg>
