<svg width="24" height="20" viewBox="0 0 24 20" fill="none" xmlns="http://www.w3.org/2000/svg">
<path d="M23.0887 2.83462C22.2301 3.21125 21.3152 3.4609 20.3614 3.58212C21.3427 2.99624 22.0916 2.07558 22.4437 0.965873C21.5288 1.51134 20.5187 1.89664 19.4422 2.11165C18.5734 1.18666 17.3353 0.61377 15.9846 0.61377C13.3641 0.61377 11.2543 2.74082 11.2543 5.3484C11.2543 5.7236 11.2861 6.08436 11.364 6.4278C7.4288 6.23588 3.94673 4.34982 1.60755 1.47671C1.19917 2.18525 0.959626 2.99624 0.959626 3.86928C0.959626 5.50858 1.80381 6.96173 3.06214 7.80303C2.30166 7.7886 1.5556 7.56781 0.92355 7.22004C0.92355 7.23447 0.92355 7.25323 0.92355 7.27199C0.92355 9.5722 2.56429 11.4828 4.71587 11.9229C4.33058 12.0283 3.91066 12.0788 3.47486 12.0788C3.17182 12.0788 2.86589 12.0615 2.57872 11.998C3.19202 13.8725 4.93233 15.2506 7.00166 15.2953C5.39122 16.5551 3.34642 17.3141 1.13279 17.3141C0.744612 17.3141 0.372306 17.2968 0 17.2492C2.09675 18.6013 4.58167 19.3734 7.26141 19.3734C15.9716 19.3734 20.7337 12.1581 20.7337 5.90398C20.7337 5.69474 20.7265 5.49271 20.7164 5.29213C21.6558 4.62544 22.4451 3.7928 23.0887 2.83462Z" fill="#00A0DF"/>
</svg>
